<svg width="57" height="56" viewBox="0 0 57 56" fill="none" xmlns="http://www.w3.org/2000/svg">
<path d="M18.4492 14.543H16.0784V16.9077H18.4492V14.543Z" fill="#EAEAEA"/>
<path d="M20.4104 18.165H15.7443V22.8192H20.4104V18.165Z" fill="#EAEAEA"/>
<path d="M21.7683 24.1199H15.6689V30.2036H21.7683V24.1199Z" fill="#EAEAEA"/>
<path d="M46.3277 26.42C46.3277 32.2672 43.5151 37.448 39.1506 40.6941L34.8939 35.9755C37.8575 33.2453 39.711 29.3329 39.711 24.9904C39.711 16.714 32.9865 10.0177 24.6995 10.0177C22.9537 10.0177 21.2834 10.3187 19.7208 10.8561C22.2964 9.40503 25.2814 8.58813 28.4497 8.58813C38.3208 8.58813 46.3277 16.5743 46.3277 26.42Z" fill="#EAEAEA"/>
<path d="M18.4492 14.543H16.0784V16.9077H18.4492V14.543Z" fill="#EAEAEA"/>
<path d="M20.4104 18.165H15.7443V22.8192H20.4104V18.165Z" fill="#EAEAEA"/>
<path d="M21.7683 24.1199H15.6689V30.2036H21.7683V24.1199Z" fill="#EAEAEA"/>
<path d="M29.9168 36.4055C29.8946 36.4166 29.8835 36.4166 29.8724 36.4276H29.8614C29.8724 36.4276 29.8946 36.4166 29.9168 36.4055Z" fill="#EAEAEA"/>
<path d="M14.0632 20.8416H7.96375V26.9252H14.0632V20.8416Z" fill="#EAEAEA"/>
<path d="M21.7683 24.1199H15.6689V30.2036H21.7683V24.1199Z" fill="#EAEAEA"/>
<path d="M20.4104 18.165H15.7443V22.8192H20.4104V18.165Z" fill="#EAEAEA"/>
<path d="M14.2248 14.6504H9.5694V19.2938H14.2248V14.6504Z" fill="#EAEAEA"/>
<path d="M18.4492 14.543H16.0784V16.9077H18.4492V14.543Z" fill="#EAEAEA"/>
<path d="M41.3382 44.714L40.8209 45.1654C38.935 46.7884 36.0901 46.5842 34.4628 44.714L33.4499 43.5424C31.8657 44.0045 30.1954 44.2518 28.4604 44.2518C20.626 44.2518 13.9662 39.2214 11.5522 32.2241C14.1062 36.846 19.0418 39.9738 24.6994 39.9738C26.4237 39.9738 28.0832 39.6836 29.6242 39.1462L28.2556 37.5769L28.7729 37.1255C28.8483 37.061 28.9238 36.9965 29.01 36.9427C29.0639 36.8997 29.107 36.8675 29.1609 36.8353C29.2147 36.803 29.2686 36.76 29.3225 36.7278C29.4303 36.6633 29.538 36.5988 29.6458 36.545C29.6997 36.5235 29.7428 36.4913 29.7967 36.4698C29.7967 36.4698 29.8074 36.4698 29.8074 36.4591C29.8182 36.4591 29.829 36.4483 29.829 36.4483C29.829 36.4483 29.8398 36.4483 29.8398 36.4376H29.8505C29.8613 36.4268 29.8829 36.4161 29.8937 36.4161C29.9691 36.3838 30.0445 36.3516 30.1307 36.3193C30.1846 36.2978 30.2493 36.2763 30.3032 36.2548C30.3678 36.2333 30.4217 36.2118 30.4864 36.2011C30.5295 36.1903 30.5726 36.1796 30.6157 36.1688C30.6264 36.1688 30.6372 36.1581 30.648 36.1581C30.6588 36.1581 30.6696 36.1473 30.6803 36.1473C30.745 36.1366 30.7989 36.1258 30.8635 36.1044C30.8851 36.0936 30.9066 36.0936 30.9282 36.0936C30.939 36.0936 30.9497 36.0936 30.9497 36.0936C30.9821 36.0829 31.0252 36.0829 31.0575 36.0721C31.0791 36.0614 31.1006 36.0614 31.1114 36.0614C31.1222 36.0614 31.1329 36.0614 31.1437 36.0614C31.1653 36.0506 31.1976 36.0506 31.2192 36.0506C31.2515 36.0399 31.2838 36.0399 31.3161 36.0399C31.3377 36.0399 31.3592 36.0291 31.3808 36.0291C31.3916 36.0291 31.4131 36.0291 31.4239 36.0291C31.5101 36.0184 31.6071 36.0184 31.6933 36.0184C32.1782 36.0184 32.674 36.0936 33.1373 36.2548C33.4606 36.3623 33.7624 36.502 34.0533 36.6848C34.4413 36.9212 34.7969 37.2222 35.1094 37.5769L38.31 41.2637L41.0795 44.456L41.3382 44.714Z" fill="#EAEAEA"/>
</svg>
