<svg width="158" height="56" viewBox="0 0 158 56" fill="none" xmlns="http://www.w3.org/2000/svg">
<path d="M18.4492 14.543H16.0784V16.9077H18.4492V14.543Z" fill="#EAEAEA"/>
<path d="M20.4105 18.165H15.7443V22.8192H20.4105V18.165Z" fill="#EAEAEA"/>
<path d="M21.7683 24.1199H15.6689V30.2036H21.7683V24.1199Z" fill="#EAEAEA"/>
<path d="M46.3277 26.42C46.3277 32.2672 43.5151 37.448 39.1506 40.6941L34.8939 35.9755C37.8575 33.2453 39.711 29.3329 39.711 24.9904C39.711 16.714 32.9865 10.0177 24.6995 10.0177C22.9537 10.0177 21.2834 10.3187 19.7208 10.8561C22.2964 9.40503 25.2814 8.58813 28.4497 8.58813C38.3208 8.58813 46.3277 16.5743 46.3277 26.42Z" fill="#EAEAEA"/>
<path d="M18.4492 14.543H16.0784V16.9077H18.4492V14.543Z" fill="#EAEAEA"/>
<path d="M20.4105 18.165H15.7443V22.8192H20.4105V18.165Z" fill="#EAEAEA"/>
<path d="M21.7683 24.1199H15.6689V30.2036H21.7683V24.1199Z" fill="#EAEAEA"/>
<path d="M29.9168 36.4055C29.8946 36.4166 29.8835 36.4166 29.8724 36.4276H29.8614C29.8724 36.4276 29.8946 36.4166 29.9168 36.4055Z" fill="#EAEAEA"/>
<path d="M14.0632 20.8416H7.96375V26.9252H14.0632V20.8416Z" fill="#EAEAEA"/>
<path d="M21.7683 24.1199H15.6689V30.2036H21.7683V24.1199Z" fill="#EAEAEA"/>
<path d="M20.4105 18.165H15.7443V22.8192H20.4105V18.165Z" fill="#EAEAEA"/>
<path d="M14.2248 14.6504H9.56943V19.2938H14.2248V14.6504Z" fill="#EAEAEA"/>
<path d="M18.4492 14.543H16.0784V16.9077H18.4492V14.543Z" fill="#EAEAEA"/>
<path d="M41.3382 44.714L40.8209 45.1654C38.9351 46.7884 36.0901 46.5842 34.4629 44.714L33.4499 43.5424C31.8658 44.0045 30.1954 44.2518 28.4604 44.2518C20.626 44.2518 13.9662 39.2214 11.5523 32.2241C14.1063 36.846 19.0419 39.9738 24.6995 39.9738C26.4237 39.9738 28.0833 39.6836 29.6243 39.1462L28.2557 37.5769L28.7729 37.1255C28.8484 37.061 28.9238 36.9965 29.01 36.9427C29.0639 36.8997 29.107 36.8675 29.1609 36.8353C29.2148 36.803 29.2687 36.76 29.3225 36.7278C29.4303 36.6633 29.5381 36.5988 29.6458 36.545C29.6997 36.5235 29.7428 36.4913 29.7967 36.4698C29.7967 36.4698 29.8075 36.4698 29.8075 36.4591C29.8183 36.4591 29.829 36.4483 29.829 36.4483C29.829 36.4483 29.8398 36.4483 29.8398 36.4376H29.8506C29.8614 36.4268 29.8829 36.4161 29.8937 36.4161C29.9691 36.3838 30.0446 36.3516 30.1308 36.3193C30.1846 36.2978 30.2493 36.2763 30.3032 36.2548C30.3678 36.2333 30.4217 36.2118 30.4864 36.2011C30.5295 36.1903 30.5726 36.1796 30.6157 36.1688C30.6265 36.1688 30.6373 36.1581 30.648 36.1581C30.6588 36.1581 30.6696 36.1473 30.6804 36.1473C30.745 36.1366 30.7989 36.1258 30.8636 36.1044C30.8851 36.0936 30.9067 36.0936 30.9282 36.0936C30.939 36.0936 30.9498 36.0936 30.9498 36.0936C30.9821 36.0829 31.0252 36.0829 31.0575 36.0721C31.0791 36.0614 31.1006 36.0614 31.1114 36.0614C31.1222 36.0614 31.133 36.0614 31.1437 36.0614C31.1653 36.0506 31.1976 36.0506 31.2192 36.0506C31.2515 36.0399 31.2838 36.0399 31.3162 36.0399C31.3377 36.0399 31.3593 36.0291 31.3808 36.0291C31.3916 36.0291 31.4132 36.0291 31.4239 36.0291C31.5101 36.0184 31.6071 36.0184 31.6933 36.0184C32.1783 36.0184 32.674 36.0936 33.1374 36.2548C33.4607 36.3623 33.7624 36.502 34.0534 36.6848C34.4413 36.9212 34.7969 37.2222 35.1095 37.5769L38.31 41.2637L41.0796 44.456L41.3382 44.714Z" fill="#EAEAEA"/>
<path d="M76.4273 20.258V40H73.149V37.0819C72.5246 38.0906 71.6479 38.8832 70.5191 39.4596C69.4144 40.012 68.1895 40.2882 66.8445 40.2882C65.3075 40.2882 63.9265 39.976 62.7016 39.3515C61.4767 38.7031 60.504 37.7424 59.7835 36.4695C59.087 35.1966 58.7388 33.6475 58.7388 31.8222V20.258H61.9811V31.3899C61.9811 33.3353 62.4734 34.8363 63.4581 35.8931C64.4428 36.9258 65.7878 37.4422 67.493 37.4422C69.2462 37.4422 70.6272 36.9018 71.6359 35.821C72.6447 34.7403 73.149 33.1672 73.149 31.1017V20.258H76.4273ZM99.9754 29.3725C99.9754 29.9969 99.9393 30.6574 99.8673 31.3539H84.0881C84.2082 33.2993 84.8687 34.8243 86.0695 35.9291C87.2944 37.0099 88.7714 37.5503 90.5007 37.5503C91.9177 37.5503 93.0945 37.226 94.0312 36.5776C94.9918 35.9051 95.6643 35.0165 96.0486 33.9117H99.5791C99.0507 35.809 97.994 37.3581 96.4088 38.559C94.8237 39.7358 92.8543 40.3242 90.5007 40.3242C88.6273 40.3242 86.9461 39.9039 85.4571 39.0633C83.992 38.2227 82.8392 37.0339 81.9986 35.4968C81.158 33.9357 80.7377 32.1344 80.7377 30.093C80.7377 28.0515 81.146 26.2623 81.9626 24.7252C82.7792 23.1881 83.92 22.0113 85.385 21.1947C86.8741 20.3541 88.5793 19.9338 90.5007 19.9338C92.374 19.9338 94.0312 20.3421 95.4722 21.1586C96.9132 21.9752 98.018 23.104 98.7865 24.545C99.5791 25.9621 99.9754 27.5712 99.9754 29.3725ZM96.589 28.688C96.589 27.4391 96.3128 26.3703 95.7604 25.4817C95.208 24.5691 94.4515 23.8846 93.4908 23.4283C92.5541 22.9479 91.5094 22.7077 90.3565 22.7077C88.6994 22.7077 87.2824 23.2361 86.1055 24.2929C84.9527 25.3496 84.2923 26.8147 84.1241 28.688H96.589ZM107.581 13.3411V40H104.303V13.3411H107.581ZM131.181 29.3725C131.181 29.9969 131.145 30.6574 131.073 31.3539H115.294C115.414 33.2993 116.074 34.8243 117.275 35.9291C118.5 37.0099 119.977 37.5503 121.706 37.5503C123.123 37.5503 124.3 37.226 125.237 36.5776C126.198 35.9051 126.87 35.0165 127.254 33.9117H130.785C130.256 35.809 129.2 37.3581 127.615 38.559C126.029 39.7358 124.06 40.3242 121.706 40.3242C119.833 40.3242 118.152 39.9039 116.663 39.0633C115.198 38.2227 114.045 37.0339 113.204 35.4968C112.364 33.9357 111.943 32.1344 111.943 30.093C111.943 28.0515 112.352 26.2623 113.168 24.7252C113.985 23.1881 115.126 22.0113 116.591 21.1947C118.08 20.3541 119.785 19.9338 121.706 19.9338C123.58 19.9338 125.237 20.3421 126.678 21.1586C128.119 21.9752 129.224 23.104 129.992 24.545C130.785 25.9621 131.181 27.5712 131.181 29.3725ZM127.795 28.688C127.795 27.4391 127.518 26.3703 126.966 25.4817C126.414 24.5691 125.657 23.8846 124.696 23.4283C123.76 22.9479 122.715 22.7077 121.562 22.7077C119.905 22.7077 118.488 23.2361 117.311 24.2929C116.158 25.3496 115.498 26.8147 115.33 28.688H127.795ZM134.283 30.057C134.283 28.0395 134.692 26.2743 135.508 24.7612C136.325 23.2241 137.442 22.0353 138.859 21.1947C140.3 20.3541 141.897 19.9338 143.65 19.9338C145.379 19.9338 146.88 20.306 148.153 21.0506C149.426 21.7951 150.375 22.7318 150.999 23.8606V20.258H154.314V40H150.999V36.3254C150.351 37.4782 149.378 38.4389 148.081 39.2074C146.808 39.952 145.319 40.3242 143.614 40.3242C141.861 40.3242 140.276 39.8919 138.859 39.0273C137.442 38.1627 136.325 36.9498 135.508 35.3887C134.692 33.8276 134.283 32.0504 134.283 30.057ZM150.999 30.093C150.999 28.6039 150.699 27.307 150.099 26.2022C149.498 25.0974 148.682 24.2568 147.649 23.6804C146.64 23.08 145.523 22.7798 144.299 22.7798C143.074 22.7798 141.957 23.068 140.948 23.6444C139.939 24.2208 139.135 25.0614 138.535 26.1662C137.934 27.271 137.634 28.5679 137.634 30.057C137.634 31.57 137.934 32.891 138.535 34.0198C139.135 35.1245 139.939 35.9771 140.948 36.5776C141.957 37.154 143.074 37.4422 144.299 37.4422C145.523 37.4422 146.64 37.154 147.649 36.5776C148.682 35.9771 149.498 35.1245 150.099 34.0198C150.699 32.891 150.999 31.582 150.999 30.093Z" fill="#EAEAEA"/>
</svg>
